<svg width="96" height="96" viewBox="0 0 96 96" fill="none" xmlns="http://www.w3.org/2000/svg">
<path d="M0 10C0 4.47715 4.47715 0 10 0H86C91.5229 0 96 4.47715 96 10V86C96 91.5229 91.5229 96 86 96H10C4.47715 96 0 91.5229 0 86V10Z" fill="#FF4D00"/>
<path fill-rule="evenodd" clip-rule="evenodd" d="M49.2678 52.6489C50.2441 53.6252 50.2441 55.2081 49.2678 56.1844L46.3094 59.1427C45.3331 60.119 43.7502 60.119 42.7739 59.1427C41.7976 58.1664 41.7976 56.5835 42.7739 55.6072L45.7322 52.6489C46.7085 51.6725 48.2915 51.6725 49.2678 52.6489Z" fill="white"/>
<path fill-rule="evenodd" clip-rule="evenodd" d="M54.329 65.113C55.3653 66.0253 55.4659 67.605 54.5536 68.6414L50.8557 72.8422C49.9434 73.8786 48.3637 73.9792 47.3273 73.0669C46.2909 72.1546 46.1903 70.5749 47.1027 69.5385L50.8006 65.3377C51.7129 64.3013 53.2926 64.2007 54.329 65.113Z" fill="white"/>
<path fill-rule="evenodd" clip-rule="evenodd" d="M67.031 29.2125C67.3148 30.5637 66.4496 31.8892 65.0984 32.1731C56.7613 33.9245 49.1142 38.0647 43.09 44.0883C37.0659 50.112 32.9251 57.7587 31.173 66.0957C30.889 67.4468 29.5634 68.312 28.2122 68.028C26.861 67.744 25.9959 66.4185 26.2799 65.0673C28.2317 55.7805 32.8442 47.2626 39.5547 40.5526C46.2651 33.8427 54.7835 29.2309 64.0704 27.2799C65.4216 26.996 66.7471 27.8613 67.031 29.2125Z" fill="white"/>
<path fill-rule="evenodd" clip-rule="evenodd" d="M70.0286 39.8547C70.3919 41.1867 69.6065 42.5611 68.2745 42.9244C65.8934 43.5737 63.8679 45.1424 62.6434 47.2852C61.419 49.428 61.0959 51.9695 61.7452 54.3505C62.3946 56.7315 63.9632 58.7571 66.1061 59.9815C68.2489 61.206 70.7903 61.5291 73.1714 60.8797C74.5034 60.5164 75.8778 61.3018 76.2411 62.6338C76.6044 63.9659 75.819 65.3403 74.487 65.7035C70.8266 66.7018 66.9195 66.2051 63.6254 64.3228C60.3312 62.4404 57.9197 59.3265 56.9214 55.6661C55.9231 52.0057 56.4198 48.0987 58.3022 44.8045C60.1846 41.5103 63.2985 39.0988 66.9589 38.1006C68.2909 37.7373 69.6653 38.5226 70.0286 39.8547Z" fill="white"/>
<path fill-rule="evenodd" clip-rule="evenodd" d="M59.3905 21.4207C59.3307 21.4134 59.2701 21.418 59.2121 21.4342L59.2096 21.4349C49.9518 24.0064 41.5163 28.9282 34.7223 35.7223C27.9282 42.5163 23.0064 50.9518 20.4349 60.2096L20.4342 60.2121C20.418 60.2701 20.4135 60.3307 20.4207 60.3905C20.428 60.4502 20.4469 60.508 20.4765 60.5604C20.5061 60.6129 20.5457 60.659 20.5931 60.6961C20.6405 60.7332 20.6948 60.7606 20.7528 60.7768L74.0042 75.5688C74.0824 75.5907 74.1651 75.5913 74.2437 75.5707C74.3223 75.5501 74.394 75.5089 74.4515 75.4515C74.5089 75.394 74.5501 75.3223 74.5707 75.2437C74.5913 75.1651 74.5907 75.0824 74.5688 75.0042L59.7768 21.7527C59.7606 21.6948 59.7332 21.6405 59.6961 21.5931C59.659 21.5457 59.6129 21.5061 59.5604 21.4765C59.508 21.4469 59.4503 21.428 59.3905 21.4207ZM57.8714 16.6173C58.5613 16.4253 59.2822 16.3708 59.9931 16.4571C60.7049 16.5436 61.3926 16.7694 62.0171 17.1216C62.6416 17.4739 63.1906 17.9458 63.6326 18.5103C64.0747 19.0748 64.4012 19.7208 64.5936 20.4116L79.3848 73.6601C79.3849 73.6605 79.385 73.6609 79.3851 73.6612C79.645 74.593 79.6525 75.5771 79.407 76.5128C79.1613 77.4488 78.6713 78.3027 77.987 78.987C77.3027 79.6713 76.4488 80.1613 75.5128 80.407C74.5771 80.6525 73.593 80.6449 72.6612 80.3851C72.6609 80.385 72.6605 80.3849 72.6602 80.3848L19.4116 65.5935C18.7208 65.4012 18.0748 65.0747 17.5103 64.6326C16.9458 64.1905 16.4739 63.6416 16.1217 63.0171C15.7694 62.3926 15.5436 61.7049 15.4572 60.9931C15.3708 60.2818 15.4253 59.5604 15.6177 58.8701C18.42 48.7821 23.7833 39.5902 31.1867 32.1867C38.5905 24.783 47.7829 19.4196 57.8714 16.6173Z" fill="white"/>
</svg>
