<svg width="324" height="96" viewBox="0 0 324 96" fill="none" xmlns="http://www.w3.org/2000/svg">
<path d="M0 10C0 4.47715 4.47715 0 10 0H86C91.5229 0 96 4.47715 96 10V86C96 91.5229 91.5229 96 86 96H10C4.47715 96 0 91.5229 0 86V10Z" fill="#FF4D00"/>
<path fill-rule="evenodd" clip-rule="evenodd" d="M49.2678 52.6489C50.2441 53.6252 50.2441 55.2081 49.2678 56.1844L46.3094 59.1428C45.3331 60.1191 43.7502 60.1191 42.7739 59.1428C41.7976 58.1665 41.7976 56.5835 42.7739 55.6072L45.7322 52.6489C46.7085 51.6726 48.2915 51.6726 49.2678 52.6489Z" fill="white"/>
<path fill-rule="evenodd" clip-rule="evenodd" d="M54.329 65.1131C55.3653 66.0254 55.4659 67.6051 54.5536 68.6415L50.8557 72.8423C49.9434 73.8787 48.3637 73.9792 47.3273 73.0669C46.2909 72.1546 46.1903 70.5749 47.1027 69.5386L50.8006 65.3377C51.7129 64.3013 53.2926 64.2008 54.329 65.1131Z" fill="white"/>
<path fill-rule="evenodd" clip-rule="evenodd" d="M67.031 29.2124C67.3148 30.5636 66.4496 31.8891 65.0984 32.173C56.7613 33.9245 49.1142 38.0646 43.09 44.0883C37.0659 50.1119 32.9251 57.7587 31.173 66.0956C30.889 67.4468 29.5634 68.3119 28.2122 68.028C26.861 67.744 25.9959 66.4184 26.2799 65.0672C28.2317 55.7805 32.8442 47.2625 39.5547 40.5526C46.2651 33.8427 54.7835 29.2309 64.0704 27.2798C65.4216 26.996 66.7471 27.8612 67.031 29.2124Z" fill="white"/>
<path fill-rule="evenodd" clip-rule="evenodd" d="M70.0286 39.8547C70.3919 41.1868 69.6065 42.5611 68.2745 42.9244C65.8934 43.5738 63.8679 45.1424 62.6434 47.2852C61.419 49.428 61.0959 51.9695 61.7452 54.3505C62.3946 56.7316 63.9632 58.7571 66.1061 59.9816C68.2489 61.206 70.7903 61.5291 73.1714 60.8798C74.5034 60.5165 75.8778 61.3018 76.2411 62.6339C76.6044 63.9659 75.819 65.3403 74.487 65.7036C70.8266 66.7019 66.9195 66.2052 63.6254 64.3228C60.3312 62.4404 57.9197 59.3265 56.9214 55.6661C55.9231 52.0057 56.4198 48.0987 58.3022 44.8045C60.1846 41.5104 63.2985 39.0989 66.9589 38.1006C68.2909 37.7373 69.6653 38.5226 70.0286 39.8547Z" fill="white"/>
<path fill-rule="evenodd" clip-rule="evenodd" d="M59.3905 21.4207C59.3307 21.4135 59.2701 21.418 59.2121 21.4342L59.2096 21.4349C49.9518 24.0064 41.5163 28.9282 34.7223 35.7223C27.9282 42.5163 23.0064 50.9518 20.4349 60.2096L20.4342 60.2121C20.418 60.2701 20.4135 60.3307 20.4207 60.3905C20.428 60.4503 20.4469 60.508 20.4765 60.5604C20.5061 60.6129 20.5457 60.659 20.5931 60.6961C20.6405 60.7332 20.6948 60.7606 20.7528 60.7768L74.0042 75.5688C74.0824 75.5907 74.1651 75.5913 74.2437 75.5707C74.3223 75.5501 74.394 75.5089 74.4515 75.4515C74.5089 75.394 74.5501 75.3223 74.5707 75.2437C74.5913 75.1651 74.5907 75.0824 74.5688 75.0042L59.7768 21.7528C59.7606 21.6948 59.7332 21.6405 59.6961 21.5931C59.659 21.5457 59.6129 21.5061 59.5604 21.4765C59.508 21.4469 59.4503 21.428 59.3905 21.4207ZM57.8714 16.6173C58.5613 16.4253 59.2822 16.3709 59.9931 16.4572C60.7049 16.5436 61.3926 16.7694 62.0171 17.1217C62.6416 17.4739 63.1906 17.9458 63.6326 18.5103C64.0747 19.0748 64.4012 19.7208 64.5936 20.4116L79.3848 73.6602C79.3849 73.6605 79.385 73.6609 79.3851 73.6612C79.645 74.593 79.6525 75.5771 79.407 76.5128C79.1613 77.4488 78.6713 78.3027 77.987 78.987C77.3027 79.6713 76.4488 80.1613 75.5128 80.407C74.5771 80.6525 73.593 80.645 72.6612 80.3851C72.6609 80.385 72.6605 80.3849 72.6602 80.3848L19.4116 65.5936C18.7208 65.4012 18.0748 65.0747 17.5103 64.6326C16.9458 64.1906 16.4739 63.6416 16.1217 63.0171C15.7694 62.3926 15.5436 61.7049 15.4572 60.9931C15.3708 60.2818 15.4253 59.5604 15.6177 58.8701C18.42 48.7821 23.7833 39.5902 31.1867 32.1867C38.5905 24.783 47.7829 19.4196 57.8714 16.6173Z" fill="white"/>
<path d="M298.047 66.4162C295.133 66.4162 292.737 65.7375 290.861 64.3801C289.025 62.9829 287.887 61.0666 287.448 58.6313L287.987 58.5714V65.8174H280.621V22.701H288.166V42.1633L287.627 42.0435C288.146 39.7679 289.364 37.9714 291.28 36.6539C293.236 35.3365 295.652 34.6778 298.526 34.6778C301.241 34.6778 303.596 35.3365 305.592 36.6539C307.628 37.9315 309.205 39.7479 310.323 42.1034C311.441 44.4588 312 47.2334 312 50.4272C312 53.6609 311.421 56.4755 310.263 58.8708C309.106 61.2662 307.489 63.1226 305.413 64.44C303.337 65.7575 300.882 66.4162 298.047 66.4162ZM296.131 60.1883C298.566 60.1883 300.502 59.3499 301.94 57.6732C303.377 55.9565 304.095 53.5611 304.095 50.4871C304.095 47.4131 303.357 45.0377 301.88 43.3609C300.442 41.6842 298.506 40.8458 296.071 40.8458C293.676 40.8458 291.739 41.7041 290.262 43.4208C288.785 45.0976 288.046 47.4729 288.046 50.547C288.046 53.621 288.785 55.9964 290.262 57.6732C291.739 59.3499 293.696 60.1883 296.131 60.1883Z" fill="#292524"/>
<path d="M254.361 66.4161C252.245 66.4161 250.409 65.977 248.852 65.0987C247.335 64.1805 246.157 62.9429 245.318 61.3859C244.52 59.8289 244.121 58.0723 244.121 56.1161V35.2766H251.666V54.5591C251.666 56.4355 252.125 57.8528 253.043 58.8109C254.002 59.769 255.339 60.2481 257.056 60.2481C258.613 60.2481 259.97 59.8888 261.128 59.1702C262.325 58.4516 263.264 57.4535 263.942 56.176C264.661 54.8586 265.02 53.3814 265.02 51.7446L265.799 59.0504C264.801 61.2861 263.304 63.0826 261.307 64.44C259.351 65.7574 257.036 66.4161 254.361 66.4161ZM265.26 65.8173V58.6312H265.02V35.2766H272.625V65.8173H265.26Z" fill="#292524"/>
<path d="M208.515 65.8174V22.701H216.06V65.8174H208.515ZM229.953 65.8174V46.5348C229.953 44.6584 229.474 43.2412 228.516 42.283C227.558 41.3249 226.16 40.8458 224.324 40.8458C222.727 40.8458 221.29 41.2051 220.012 41.9237C218.775 42.6423 217.797 43.6404 217.078 44.9179C216.399 46.1954 216.06 47.6726 216.06 49.3493L215.282 42.0435C216.32 39.8078 217.837 38.0313 219.833 36.7138C221.829 35.3565 224.224 34.6778 227.019 34.6778C230.332 34.6778 232.907 35.616 234.744 37.4923C236.62 39.3687 237.558 41.8638 237.558 44.9778V65.8174H229.953Z" fill="#292524"/>
<path d="M176.05 65.8173V60.4876L193.596 38.3306L195.392 41.205H176.589V35.2766H201.081V40.6062L183.835 62.4638L182.098 59.8888H201.441V65.8173H176.05Z" fill="#292524"/>
<path d="M162.569 65.8173V35.2766H170.114V65.8173H162.569ZM162.21 30.2463V21.9225H170.414V30.2463H162.21Z" fill="#292524"/>
<path d="M142.977 66.4162C140.063 66.4162 137.687 65.7375 135.851 64.3801C134.055 62.9828 132.937 61.0666 132.498 58.6313L133.096 58.5714V78.0935H125.551V35.2766H132.917V42.1632L132.318 42.0435C132.877 39.7679 134.154 37.9714 136.15 36.6539C138.147 35.3365 140.582 34.6777 143.456 34.6777C146.171 34.6777 148.526 35.3365 150.523 36.6539C152.559 37.9314 154.136 39.7479 155.253 42.1033C156.371 44.4588 156.93 47.2334 156.93 50.4272C156.93 53.6609 156.351 56.4755 155.194 58.8708C154.036 61.2662 152.419 63.1226 150.343 64.44C148.267 65.7574 145.812 66.4162 142.977 66.4162ZM141.061 60.1883C143.496 60.1883 145.432 59.3499 146.87 57.6731C148.307 55.9565 149.025 53.5611 149.025 50.4871C149.025 47.413 148.287 45.0377 146.81 43.3609C145.373 41.6842 143.436 40.8458 141.001 40.8458C138.606 40.8458 136.669 41.7041 135.192 43.4208C133.715 45.0975 132.977 47.4729 132.977 50.547C132.977 53.621 133.715 55.9964 135.192 57.6731C136.669 59.3499 138.626 60.1883 141.061 60.1883Z" fill="#292524"/>
</svg>
